<mxfile host="app.diagrams.net" modified="2021-05-24T03:33:17.941Z" agent="5.0 (Windows)" etag="fEPvGMOTV7NxbDa0HMvB" version="14.6.13" type="github" pages="3">
  <diagram id="bK70LEa8pTaSYF2jA3d7" name="Page-1">
    <mxGraphModel dx="1038" dy="564" grid="1" gridSize="10" guides="1" tooltips="1" connect="1" arrows="1" fold="1" page="1" pageScale="1" pageWidth="827" pageHeight="1169" math="0" shadow="0">
      <root>
        <mxCell id="0" />
        <mxCell id="1" parent="0" />
        <mxCell id="g-ztzAR-CK4e84oECQQ--1" value="" style="rounded=0;html=1;jettySize=auto;orthogonalLoop=1;fontSize=11;endArrow=block;endFill=0;endSize=8;strokeWidth=1;shadow=0;labelBackgroundColor=none;edgeStyle=orthogonalEdgeStyle;" parent="1" source="g-ztzAR-CK4e84oECQQ--2" target="g-ztzAR-CK4e84oECQQ--5" edge="1">
          <mxGeometry relative="1" as="geometry" />
        </mxCell>
        <mxCell id="g-ztzAR-CK4e84oECQQ--2" value="Lamp doesn&#39;t work" style="rounded=1;whiteSpace=wrap;html=1;fontSize=12;glass=0;strokeWidth=1;shadow=0;" parent="1" vertex="1">
          <mxGeometry x="160" y="80" width="120" height="40" as="geometry" />
        </mxCell>
        <mxCell id="g-ztzAR-CK4e84oECQQ--3" value="Yes" style="rounded=0;html=1;jettySize=auto;orthogonalLoop=1;fontSize=11;endArrow=block;endFill=0;endSize=8;strokeWidth=1;shadow=0;labelBackgroundColor=none;edgeStyle=orthogonalEdgeStyle;" parent="1" source="g-ztzAR-CK4e84oECQQ--5" target="g-ztzAR-CK4e84oECQQ--9" edge="1">
          <mxGeometry y="20" relative="1" as="geometry">
            <mxPoint as="offset" />
          </mxGeometry>
        </mxCell>
        <mxCell id="g-ztzAR-CK4e84oECQQ--4" value="No" style="edgeStyle=orthogonalEdgeStyle;rounded=0;html=1;jettySize=auto;orthogonalLoop=1;fontSize=11;endArrow=block;endFill=0;endSize=8;strokeWidth=1;shadow=0;labelBackgroundColor=none;" parent="1" source="g-ztzAR-CK4e84oECQQ--5" target="g-ztzAR-CK4e84oECQQ--6" edge="1">
          <mxGeometry y="10" relative="1" as="geometry">
            <mxPoint as="offset" />
          </mxGeometry>
        </mxCell>
        <mxCell id="g-ztzAR-CK4e84oECQQ--5" value="Lamp&lt;br&gt;plugged in?" style="rhombus;whiteSpace=wrap;html=1;shadow=0;fontFamily=Helvetica;fontSize=12;align=center;strokeWidth=1;spacing=6;spacingTop=-4;" parent="1" vertex="1">
          <mxGeometry x="170" y="170" width="100" height="80" as="geometry" />
        </mxCell>
        <mxCell id="g-ztzAR-CK4e84oECQQ--6" value="Plug in lamp" style="rounded=1;whiteSpace=wrap;html=1;fontSize=12;glass=0;strokeWidth=1;shadow=0;" parent="1" vertex="1">
          <mxGeometry x="320" y="190" width="120" height="40" as="geometry" />
        </mxCell>
        <mxCell id="g-ztzAR-CK4e84oECQQ--7" value="No" style="rounded=0;html=1;jettySize=auto;orthogonalLoop=1;fontSize=11;endArrow=block;endFill=0;endSize=8;strokeWidth=1;shadow=0;labelBackgroundColor=none;edgeStyle=orthogonalEdgeStyle;" parent="1" source="g-ztzAR-CK4e84oECQQ--9" target="g-ztzAR-CK4e84oECQQ--10" edge="1">
          <mxGeometry x="0.3333" y="20" relative="1" as="geometry">
            <mxPoint as="offset" />
          </mxGeometry>
        </mxCell>
        <mxCell id="g-ztzAR-CK4e84oECQQ--8" value="Yes" style="edgeStyle=orthogonalEdgeStyle;rounded=0;html=1;jettySize=auto;orthogonalLoop=1;fontSize=11;endArrow=block;endFill=0;endSize=8;strokeWidth=1;shadow=0;labelBackgroundColor=none;" parent="1" source="g-ztzAR-CK4e84oECQQ--9" target="g-ztzAR-CK4e84oECQQ--11" edge="1">
          <mxGeometry y="10" relative="1" as="geometry">
            <mxPoint as="offset" />
          </mxGeometry>
        </mxCell>
        <mxCell id="g-ztzAR-CK4e84oECQQ--9" value="Bulb&lt;br&gt;burned out?" style="rhombus;whiteSpace=wrap;html=1;shadow=0;fontFamily=Helvetica;fontSize=12;align=center;strokeWidth=1;spacing=6;spacingTop=-4;" parent="1" vertex="1">
          <mxGeometry x="170" y="290" width="100" height="80" as="geometry" />
        </mxCell>
        <mxCell id="g-ztzAR-CK4e84oECQQ--10" value="Repair Lamp" style="rounded=1;whiteSpace=wrap;html=1;fontSize=12;glass=0;strokeWidth=1;shadow=0;" parent="1" vertex="1">
          <mxGeometry x="160" y="430" width="120" height="40" as="geometry" />
        </mxCell>
        <mxCell id="g-ztzAR-CK4e84oECQQ--11" value="Replace Bulb" style="rounded=1;whiteSpace=wrap;html=1;fontSize=12;glass=0;strokeWidth=1;shadow=0;" parent="1" vertex="1">
          <mxGeometry x="320" y="310" width="120" height="40" as="geometry" />
        </mxCell>
      </root>
    </mxGraphModel>
  </diagram>
  <diagram name="V1架構" id="xat-Mu_vWtGQXRAsiRks">
    <mxGraphModel dx="1038" dy="564" grid="1" gridSize="10" guides="1" tooltips="1" connect="1" arrows="1" fold="1" page="1" pageScale="1" pageWidth="827" pageHeight="1169" math="0" shadow="0">
      <root>
        <mxCell id="NK_LnD1ayLO3b4Zm_uxt-0" />
        <mxCell id="NK_LnD1ayLO3b4Zm_uxt-1" parent="NK_LnD1ayLO3b4Zm_uxt-0" />
        <mxCell id="1ZGXb1lvuUT7SftnG_Mi-25" value="" style="edgeStyle=orthogonalEdgeStyle;rounded=0;orthogonalLoop=1;jettySize=auto;html=1;fontSize=16;" parent="NK_LnD1ayLO3b4Zm_uxt-1" source="NK_LnD1ayLO3b4Zm_uxt-3" target="1ZGXb1lvuUT7SftnG_Mi-2" edge="1">
          <mxGeometry relative="1" as="geometry" />
        </mxCell>
        <mxCell id="1ZGXb1lvuUT7SftnG_Mi-26" style="edgeStyle=orthogonalEdgeStyle;rounded=0;orthogonalLoop=1;jettySize=auto;html=1;exitX=0.5;exitY=1;exitDx=0;exitDy=0;entryX=0.5;entryY=0;entryDx=0;entryDy=0;fontSize=16;" parent="NK_LnD1ayLO3b4Zm_uxt-1" source="NK_LnD1ayLO3b4Zm_uxt-3" target="1ZGXb1lvuUT7SftnG_Mi-0" edge="1">
          <mxGeometry relative="1" as="geometry" />
        </mxCell>
        <mxCell id="1ZGXb1lvuUT7SftnG_Mi-27" style="edgeStyle=orthogonalEdgeStyle;rounded=0;orthogonalLoop=1;jettySize=auto;html=1;entryX=0.5;entryY=0;entryDx=0;entryDy=0;fontSize=16;" parent="NK_LnD1ayLO3b4Zm_uxt-1" target="1ZGXb1lvuUT7SftnG_Mi-1" edge="1">
          <mxGeometry relative="1" as="geometry">
            <mxPoint x="443" y="380" as="sourcePoint" />
            <Array as="points">
              <mxPoint x="443" y="410" />
              <mxPoint x="283" y="410" />
            </Array>
          </mxGeometry>
        </mxCell>
        <mxCell id="1ZGXb1lvuUT7SftnG_Mi-28" style="edgeStyle=orthogonalEdgeStyle;rounded=0;orthogonalLoop=1;jettySize=auto;html=1;exitX=0.5;exitY=1;exitDx=0;exitDy=0;entryX=0.5;entryY=0;entryDx=0;entryDy=0;fontSize=16;" parent="NK_LnD1ayLO3b4Zm_uxt-1" source="NK_LnD1ayLO3b4Zm_uxt-3" target="1ZGXb1lvuUT7SftnG_Mi-3" edge="1">
          <mxGeometry relative="1" as="geometry" />
        </mxCell>
        <mxCell id="1ZGXb1lvuUT7SftnG_Mi-29" style="edgeStyle=orthogonalEdgeStyle;rounded=0;orthogonalLoop=1;jettySize=auto;html=1;exitX=0.5;exitY=1;exitDx=0;exitDy=0;entryX=0.5;entryY=0;entryDx=0;entryDy=0;fontSize=16;" parent="NK_LnD1ayLO3b4Zm_uxt-1" source="NK_LnD1ayLO3b4Zm_uxt-3" target="1ZGXb1lvuUT7SftnG_Mi-4" edge="1">
          <mxGeometry relative="1" as="geometry" />
        </mxCell>
        <mxCell id="NK_LnD1ayLO3b4Zm_uxt-3" value="客服網站" style="rounded=1;whiteSpace=wrap;html=1;fontSize=16;" parent="NK_LnD1ayLO3b4Zm_uxt-1" vertex="1">
          <mxGeometry x="390" y="340" width="106" height="40" as="geometry" />
        </mxCell>
        <mxCell id="1ZGXb1lvuUT7SftnG_Mi-31" style="edgeStyle=orthogonalEdgeStyle;rounded=0;orthogonalLoop=1;jettySize=auto;html=1;exitX=0.5;exitY=1;exitDx=0;exitDy=0;entryX=0;entryY=0.5;entryDx=0;entryDy=0;fontSize=16;" parent="NK_LnD1ayLO3b4Zm_uxt-1" source="1ZGXb1lvuUT7SftnG_Mi-0" target="1ZGXb1lvuUT7SftnG_Mi-30" edge="1">
          <mxGeometry relative="1" as="geometry" />
        </mxCell>
        <mxCell id="1ZGXb1lvuUT7SftnG_Mi-37" style="edgeStyle=orthogonalEdgeStyle;rounded=0;orthogonalLoop=1;jettySize=auto;html=1;exitX=0.25;exitY=1;exitDx=0;exitDy=0;entryX=0;entryY=0.5;entryDx=0;entryDy=0;fontSize=16;" parent="NK_LnD1ayLO3b4Zm_uxt-1" source="1ZGXb1lvuUT7SftnG_Mi-0" target="1ZGXb1lvuUT7SftnG_Mi-33" edge="1">
          <mxGeometry relative="1" as="geometry" />
        </mxCell>
        <mxCell id="1ZGXb1lvuUT7SftnG_Mi-0" value="基本操作說明" style="rounded=1;whiteSpace=wrap;html=1;fontSize=16;arcSize=0;" parent="NK_LnD1ayLO3b4Zm_uxt-1" vertex="1">
          <mxGeometry x="60" y="440" width="106" height="40" as="geometry" />
        </mxCell>
        <mxCell id="1ZGXb1lvuUT7SftnG_Mi-32" style="edgeStyle=orthogonalEdgeStyle;rounded=0;orthogonalLoop=1;jettySize=auto;html=1;exitX=0.5;exitY=1;exitDx=0;exitDy=0;entryX=1;entryY=0.5;entryDx=0;entryDy=0;fontSize=16;" parent="NK_LnD1ayLO3b4Zm_uxt-1" source="1ZGXb1lvuUT7SftnG_Mi-1" target="1ZGXb1lvuUT7SftnG_Mi-30" edge="1">
          <mxGeometry relative="1" as="geometry" />
        </mxCell>
        <mxCell id="1ZGXb1lvuUT7SftnG_Mi-38" style="edgeStyle=orthogonalEdgeStyle;rounded=0;orthogonalLoop=1;jettySize=auto;html=1;exitX=0.75;exitY=1;exitDx=0;exitDy=0;entryX=1;entryY=0.5;entryDx=0;entryDy=0;fontSize=16;" parent="NK_LnD1ayLO3b4Zm_uxt-1" source="1ZGXb1lvuUT7SftnG_Mi-1" target="1ZGXb1lvuUT7SftnG_Mi-33" edge="1">
          <mxGeometry relative="1" as="geometry" />
        </mxCell>
        <mxCell id="1ZGXb1lvuUT7SftnG_Mi-1" value="常見操作問題" style="rounded=1;whiteSpace=wrap;html=1;fontSize=16;arcSize=0;" parent="NK_LnD1ayLO3b4Zm_uxt-1" vertex="1">
          <mxGeometry x="230" y="440" width="106" height="40" as="geometry" />
        </mxCell>
        <mxCell id="1ZGXb1lvuUT7SftnG_Mi-2" value="系統公告" style="rounded=1;whiteSpace=wrap;html=1;fontSize=16;arcSize=0;" parent="NK_LnD1ayLO3b4Zm_uxt-1" vertex="1">
          <mxGeometry x="390" y="440" width="106" height="40" as="geometry" />
        </mxCell>
        <mxCell id="1ZGXb1lvuUT7SftnG_Mi-3" value="數據實績" style="rounded=1;whiteSpace=wrap;html=1;fontSize=16;arcSize=0;" parent="NK_LnD1ayLO3b4Zm_uxt-1" vertex="1">
          <mxGeometry x="550" y="440" width="106" height="40" as="geometry" />
        </mxCell>
        <mxCell id="1ZGXb1lvuUT7SftnG_Mi-4" value="Utrac系統" style="rounded=1;whiteSpace=wrap;html=1;fontSize=16;arcSize=0;" parent="NK_LnD1ayLO3b4Zm_uxt-1" vertex="1">
          <mxGeometry x="700" y="440" width="106" height="40" as="geometry" />
        </mxCell>
        <mxCell id="1ZGXb1lvuUT7SftnG_Mi-34" style="edgeStyle=orthogonalEdgeStyle;rounded=0;orthogonalLoop=1;jettySize=auto;html=1;exitX=0.5;exitY=1;exitDx=0;exitDy=0;entryX=0.5;entryY=0;entryDx=0;entryDy=0;fontSize=16;" parent="NK_LnD1ayLO3b4Zm_uxt-1" source="1ZGXb1lvuUT7SftnG_Mi-30" target="1ZGXb1lvuUT7SftnG_Mi-33" edge="1">
          <mxGeometry relative="1" as="geometry" />
        </mxCell>
        <mxCell id="1ZGXb1lvuUT7SftnG_Mi-36" style="edgeStyle=orthogonalEdgeStyle;rounded=0;orthogonalLoop=1;jettySize=auto;html=1;exitX=0.75;exitY=1;exitDx=0;exitDy=0;entryX=0;entryY=0.5;entryDx=0;entryDy=0;fontSize=16;" parent="NK_LnD1ayLO3b4Zm_uxt-1" source="1ZGXb1lvuUT7SftnG_Mi-30" target="NK_LnD1ayLO3b4Zm_uxt-3" edge="1">
          <mxGeometry relative="1" as="geometry">
            <Array as="points">
              <mxPoint x="220" y="620" />
              <mxPoint x="350" y="620" />
              <mxPoint x="350" y="360" />
            </Array>
          </mxGeometry>
        </mxCell>
        <mxCell id="1ZGXb1lvuUT7SftnG_Mi-30" value="文件總覽" style="rounded=1;whiteSpace=wrap;html=1;fontSize=16;arcSize=0;" parent="NK_LnD1ayLO3b4Zm_uxt-1" vertex="1">
          <mxGeometry x="140" y="560" width="106" height="40" as="geometry" />
        </mxCell>
        <mxCell id="1ZGXb1lvuUT7SftnG_Mi-35" style="edgeStyle=orthogonalEdgeStyle;rounded=0;orthogonalLoop=1;jettySize=auto;html=1;exitX=0.5;exitY=1;exitDx=0;exitDy=0;entryX=1;entryY=0.5;entryDx=0;entryDy=0;fontSize=16;" parent="NK_LnD1ayLO3b4Zm_uxt-1" source="1ZGXb1lvuUT7SftnG_Mi-33" target="NK_LnD1ayLO3b4Zm_uxt-3" edge="1">
          <mxGeometry relative="1" as="geometry" />
        </mxCell>
        <mxCell id="1ZGXb1lvuUT7SftnG_Mi-33" value="PDF文件頁" style="rounded=1;whiteSpace=wrap;html=1;fontSize=16;arcSize=0;" parent="NK_LnD1ayLO3b4Zm_uxt-1" vertex="1">
          <mxGeometry x="140" y="670" width="106" height="40" as="geometry" />
        </mxCell>
        <mxCell id="QB9Qafex_bKBNdCspL0p-1" style="edgeStyle=orthogonalEdgeStyle;rounded=0;orthogonalLoop=1;jettySize=auto;html=1;exitX=0.5;exitY=1;exitDx=0;exitDy=0;entryX=0.5;entryY=0;entryDx=0;entryDy=0;fillColor=#f8cecc;strokeColor=#b85450;" parent="NK_LnD1ayLO3b4Zm_uxt-1" source="QB9Qafex_bKBNdCspL0p-0" target="NK_LnD1ayLO3b4Zm_uxt-3" edge="1">
          <mxGeometry relative="1" as="geometry" />
        </mxCell>
        <mxCell id="QB9Qafex_bKBNdCspL0p-2" style="edgeStyle=orthogonalEdgeStyle;rounded=0;orthogonalLoop=1;jettySize=auto;html=1;exitX=0;exitY=0.5;exitDx=0;exitDy=0;entryX=0.25;entryY=1;entryDx=0;entryDy=0;fillColor=#f8cecc;strokeColor=#b85450;" parent="NK_LnD1ayLO3b4Zm_uxt-1" source="QB9Qafex_bKBNdCspL0p-0" target="1ZGXb1lvuUT7SftnG_Mi-33" edge="1">
          <mxGeometry relative="1" as="geometry">
            <Array as="points">
              <mxPoint x="30" y="290" />
              <mxPoint x="30" y="730" />
              <mxPoint x="167" y="730" />
            </Array>
          </mxGeometry>
        </mxCell>
        <mxCell id="QB9Qafex_bKBNdCspL0p-0" value="&lt;div&gt;WebITR&lt;/div&gt;&lt;div&gt;小幫手&lt;/div&gt;" style="rounded=1;whiteSpace=wrap;html=1;fontSize=16;" parent="NK_LnD1ayLO3b4Zm_uxt-1" vertex="1">
          <mxGeometry x="390" y="270" width="106" height="40" as="geometry" />
        </mxCell>
      </root>
    </mxGraphModel>
  </diagram>
  <diagram id="YEdGIfADDMSXA9HclvnI" name="Page-3">
    <mxGraphModel dx="1038" dy="564" grid="1" gridSize="10" guides="1" tooltips="1" connect="1" arrows="1" fold="1" page="1" pageScale="1" pageWidth="827" pageHeight="1169" math="0" shadow="0">
      <root>
        <mxCell id="JhjHstdGSdgShTpdr1XO-0" />
        <mxCell id="JhjHstdGSdgShTpdr1XO-1" parent="JhjHstdGSdgShTpdr1XO-0" />
        <mxCell id="SRMEIvwDyurq1VHwNi14-11" style="edgeStyle=orthogonalEdgeStyle;rounded=0;orthogonalLoop=1;jettySize=auto;html=1;exitX=1;exitY=0.5;exitDx=0;exitDy=0;entryX=0;entryY=0.5;entryDx=0;entryDy=0;fontFamily=Helvetica;fontSize=19;" edge="1" parent="JhjHstdGSdgShTpdr1XO-1" source="SRMEIvwDyurq1VHwNi14-1" target="SRMEIvwDyurq1VHwNi14-7">
          <mxGeometry relative="1" as="geometry" />
        </mxCell>
        <mxCell id="SRMEIvwDyurq1VHwNi14-1" value="" style="ellipse;whiteSpace=wrap;html=1;" vertex="1" parent="JhjHstdGSdgShTpdr1XO-1">
          <mxGeometry x="280" y="150" width="20" height="20" as="geometry" />
        </mxCell>
        <mxCell id="SRMEIvwDyurq1VHwNi14-2" value="客服網站V1上線時程" style="text;html=1;resizable=0;autosize=1;align=center;verticalAlign=middle;points=[];fillColor=none;strokeColor=none;rounded=0;fontFamily=Helvetica;fontSize=19;" vertex="1" parent="JhjHstdGSdgShTpdr1XO-1">
          <mxGeometry x="40" y="40" width="190" height="30" as="geometry" />
        </mxCell>
        <mxCell id="SRMEIvwDyurq1VHwNi14-3" value="0521" style="text;html=1;resizable=0;autosize=1;align=center;verticalAlign=middle;points=[];fillColor=none;strokeColor=none;rounded=0;fontFamily=Helvetica;fontSize=19;" vertex="1" parent="JhjHstdGSdgShTpdr1XO-1">
          <mxGeometry x="260" y="170" width="60" height="30" as="geometry" />
        </mxCell>
        <mxCell id="SRMEIvwDyurq1VHwNi14-12" style="edgeStyle=orthogonalEdgeStyle;rounded=0;orthogonalLoop=1;jettySize=auto;html=1;exitX=1;exitY=0.5;exitDx=0;exitDy=0;entryX=0;entryY=0.5;entryDx=0;entryDy=0;fontFamily=Helvetica;fontSize=19;" edge="1" parent="JhjHstdGSdgShTpdr1XO-1" source="SRMEIvwDyurq1VHwNi14-7" target="SRMEIvwDyurq1VHwNi14-9">
          <mxGeometry relative="1" as="geometry" />
        </mxCell>
        <mxCell id="SRMEIvwDyurq1VHwNi14-7" value="" style="ellipse;whiteSpace=wrap;html=1;" vertex="1" parent="JhjHstdGSdgShTpdr1XO-1">
          <mxGeometry x="510" y="150" width="20" height="20" as="geometry" />
        </mxCell>
        <mxCell id="SRMEIvwDyurq1VHwNi14-8" value="0524" style="text;html=1;resizable=0;autosize=1;align=center;verticalAlign=middle;points=[];fillColor=none;strokeColor=none;rounded=0;fontFamily=Helvetica;fontSize=19;" vertex="1" parent="JhjHstdGSdgShTpdr1XO-1">
          <mxGeometry x="490" y="170" width="60" height="30" as="geometry" />
        </mxCell>
        <mxCell id="SRMEIvwDyurq1VHwNi14-9" value="" style="ellipse;whiteSpace=wrap;html=1;" vertex="1" parent="JhjHstdGSdgShTpdr1XO-1">
          <mxGeometry x="740" y="150" width="20" height="20" as="geometry" />
        </mxCell>
        <mxCell id="SRMEIvwDyurq1VHwNi14-10" value="0525" style="text;html=1;resizable=0;autosize=1;align=center;verticalAlign=middle;points=[];fillColor=none;strokeColor=none;rounded=0;fontFamily=Helvetica;fontSize=19;" vertex="1" parent="JhjHstdGSdgShTpdr1XO-1">
          <mxGeometry x="720" y="170" width="60" height="30" as="geometry" />
        </mxCell>
        <mxCell id="SRMEIvwDyurq1VHwNi14-15" style="edgeStyle=orthogonalEdgeStyle;rounded=0;orthogonalLoop=1;jettySize=auto;html=1;exitX=1;exitY=0.5;exitDx=0;exitDy=0;entryX=0;entryY=0.5;entryDx=0;entryDy=0;fontFamily=Helvetica;fontSize=19;" edge="1" parent="JhjHstdGSdgShTpdr1XO-1" source="SRMEIvwDyurq1VHwNi14-13" target="SRMEIvwDyurq1VHwNi14-1">
          <mxGeometry relative="1" as="geometry" />
        </mxCell>
        <mxCell id="SRMEIvwDyurq1VHwNi14-13" value="" style="ellipse;whiteSpace=wrap;html=1;" vertex="1" parent="JhjHstdGSdgShTpdr1XO-1">
          <mxGeometry x="60" y="150" width="20" height="20" as="geometry" />
        </mxCell>
        <mxCell id="SRMEIvwDyurq1VHwNi14-14" value="0520" style="text;html=1;resizable=0;autosize=1;align=center;verticalAlign=middle;points=[];fillColor=none;strokeColor=none;rounded=0;fontFamily=Helvetica;fontSize=19;" vertex="1" parent="JhjHstdGSdgShTpdr1XO-1">
          <mxGeometry x="40" y="170" width="60" height="30" as="geometry" />
        </mxCell>
        <mxCell id="SRMEIvwDyurq1VHwNi14-16" value="決議上線運作" style="text;html=1;resizable=0;autosize=1;align=center;verticalAlign=middle;points=[];fillColor=none;strokeColor=none;rounded=0;fontFamily=Helvetica;fontSize=19;" vertex="1" parent="JhjHstdGSdgShTpdr1XO-1">
          <mxGeometry x="5" y="215" width="130" height="30" as="geometry" />
        </mxCell>
        <mxCell id="SRMEIvwDyurq1VHwNi14-17" value="製作操作手冊" style="text;html=1;resizable=0;autosize=1;align=center;verticalAlign=middle;points=[];fillColor=none;strokeColor=none;rounded=0;fontFamily=Helvetica;fontSize=19;" vertex="1" parent="JhjHstdGSdgShTpdr1XO-1">
          <mxGeometry x="220" y="215" width="130" height="30" as="geometry" />
        </mxCell>
        <mxCell id="SRMEIvwDyurq1VHwNi14-18" value="&lt;div&gt;調整操作手冊&lt;/div&gt;&lt;div&gt;完成標題樣式調整&lt;/div&gt;&lt;div&gt;上版與資料設定&lt;/div&gt;&lt;div&gt;公告與發信通知設定&lt;br&gt;&lt;/div&gt;&lt;div&gt;&lt;br&gt;&lt;/div&gt;" style="text;html=1;resizable=0;autosize=1;align=center;verticalAlign=middle;points=[];fillColor=none;strokeColor=none;rounded=0;fontFamily=Helvetica;fontSize=19;" vertex="1" parent="JhjHstdGSdgShTpdr1XO-1">
          <mxGeometry x="425" y="215" width="190" height="120" as="geometry" />
        </mxCell>
        <mxCell id="SRMEIvwDyurq1VHwNi14-19" value="確認標題樣式工時" style="text;html=1;resizable=0;autosize=1;align=center;verticalAlign=middle;points=[];fillColor=none;strokeColor=none;rounded=0;fontFamily=Helvetica;fontSize=19;" vertex="1" parent="JhjHstdGSdgShTpdr1XO-1">
          <mxGeometry x="200" y="245" width="170" height="30" as="geometry" />
        </mxCell>
        <mxCell id="SRMEIvwDyurq1VHwNi14-20" value="確認上版設定工時" style="text;html=1;resizable=0;autosize=1;align=center;verticalAlign=middle;points=[];fillColor=none;strokeColor=none;rounded=0;fontFamily=Helvetica;fontSize=19;" vertex="1" parent="JhjHstdGSdgShTpdr1XO-1">
          <mxGeometry x="200" y="275" width="170" height="30" as="geometry" />
        </mxCell>
        <mxCell id="SRMEIvwDyurq1VHwNi14-21" value="上版運作" style="text;html=1;resizable=0;autosize=1;align=center;verticalAlign=middle;points=[];fillColor=none;strokeColor=none;rounded=0;fontFamily=Helvetica;fontSize=19;" vertex="1" parent="JhjHstdGSdgShTpdr1XO-1">
          <mxGeometry x="700" y="215" width="90" height="30" as="geometry" />
        </mxCell>
      </root>
    </mxGraphModel>
  </diagram>
</mxfile>
